<svg width="24" height="24" viewBox="0 0 24 24" fill="none" xmlns="http://www.w3.org/2000/svg">
<path d="M2.00003 18L3.00003 18V18H2.00003ZM21.995 18L20.995 17.9996V18H21.995ZM22 5.99992L23 6.00033V5.99992H22ZM18 2L18 1H18V2ZM6 2V1H5.99998L6 2ZM16.5 12L17.2372 11.3243C17.0557 11.1263 16.8023 11.0097 16.5339 11.0006C16.2656 10.9915 16.0048 11.0907 15.8103 11.2759L16.5 12ZM11.0002 8.5H12.0002H11.0002ZM5.99982 8.5H4.99982H5.99982ZM6.00001 21C5.17499 21 4.62271 20.7966 4.24221 20.543C3.85545 20.2851 3.58513 19.9342 3.39444 19.5528C3.2018 19.1675 3.1005 18.7701 3.04892 18.4606C3.02352 18.3082 3.01121 18.1834 3.0053 18.1006C3.00235 18.0594 3.00103 18.0291 3.00045 18.0116C3.00016 18.0029 3.00005 17.9974 3.00002 17.9954C3 17.9943 3 17.9942 3.00001 17.995C3.00001 17.9954 3.00002 17.996 3.00002 17.9968C3.00002 17.9972 3.00002 17.9977 3.00002 17.9982C3.00002 17.9985 3.00002 17.9989 3.00003 17.9991C3.00003 17.9995 3.00003 18 2.00003 18C1.00003 18 1.00003 18.0005 1.00003 18.001C1.00003 18.0012 1.00003 18.0017 1.00003 18.0021C1.00003 18.0029 1.00003 18.0038 1.00004 18.0047C1.00004 18.0065 1.00005 18.0085 1.00007 18.0108C1.00011 18.0154 1.00017 18.021 1.00028 18.0276C1.00049 18.0407 1.00087 18.0577 1.00156 18.0782C1.00293 18.1193 1.00551 18.175 1.01038 18.2431C1.02009 18.3791 1.03903 18.5668 1.07613 18.7894C1.14954 19.2299 1.29823 19.8325 1.60559 20.4472C1.9149 21.0658 2.39457 21.7149 3.13281 22.2071C3.8773 22.7034 4.82503 23 6.00001 23V21ZM1.00003 5.99982V18H3.00003V5.99982H1.00003ZM18 21H6.00001V23H18V21ZM23 5.99992C23 4.82496 22.7034 3.87727 22.207 3.13279C21.7149 2.39457 21.0658 1.91491 20.4472 1.60559C19.8325 1.29824 19.2299 1.14954 18.7894 1.07612C18.5668 1.03901 18.3791 1.02007 18.2431 1.01036C18.175 1.00549 18.1193 1.0029 18.0783 1.00153C18.0577 1.00085 18.0407 1.00046 18.0276 1.00025C18.0211 1.00015 18.0155 1.00008 18.0109 1.00005C18.0086 1.00003 18.0065 1.00002 18.0047 1.00001C18.0038 1.00001 18.0029 1 18.0022 1C18.0018 1 18.0012 1 18.001 1C18.0005 1 18 1 18 2C18 3 17.9995 3 17.999 3C17.9989 3 17.9985 3 17.9982 3C17.9977 3 17.9972 3 17.9968 2.99999C17.9959 2.99999 17.9953 2.99999 17.9949 2.99998C17.9942 2.99998 17.9943 2.99998 17.9953 2.99999C17.9974 3.00002 18.0029 3.00013 18.0116 3.00042C18.0291 3.00101 18.0594 3.00233 18.1006 3.00527C18.1834 3.01119 18.3082 3.0235 18.4606 3.0489C18.7701 3.10049 19.1675 3.2018 19.5528 3.39445C19.9342 3.58514 20.2851 3.85546 20.543 4.24221C20.7966 4.6227 21 5.17495 21 5.99992H23ZM6 2C5.99998 1 5.99947 1 5.99895 1C5.99876 1 5.99822 1 5.99783 1C5.99705 1 5.99621 1.00001 5.99531 1.00001C5.9935 1.00002 5.99145 1.00003 5.98914 1.00005C5.98453 1.00008 5.97893 1.00015 5.97237 1.00025C5.95926 1.00046 5.9423 1.00085 5.92174 1.00153C5.88065 1.0029 5.82501 1.00549 5.75686 1.01036C5.6209 1.02007 5.4332 1.03901 5.21059 1.07612C4.77011 1.14954 4.16751 1.29824 3.5528 1.60558C2.93419 1.91489 2.28514 2.39455 1.79298 3.13275C1.29665 3.87721 1.00003 4.82489 1.00003 5.99982H3.00003C3.00003 5.17489 3.2034 4.62266 3.45706 4.24218C3.7149 3.85544 4.06585 3.58513 4.44722 3.39444C4.83251 3.2018 5.22991 3.10049 5.53942 3.0489C5.6918 3.0235 5.8166 3.01119 5.89939 3.00527C5.94062 3.00233 5.97091 3.00101 5.98842 3.00042C5.99715 3.00013 6.00265 3.00002 6.00468 2.99999C6.00569 2.99998 6.00583 2.99998 6.00506 2.99998C6.00468 2.99999 6.00407 2.99999 6.00323 2.99999C6.00281 3 6.00234 3 6.0018 3C6.00154 3 6.00109 3 6.00096 3C6.0005 3 6.00002 3 6 2ZM6 3H18V1H6V3ZM21.995 18C20.995 18 20.995 17.9995 20.995 17.9991C20.995 17.9989 20.995 17.9985 20.995 17.9982C20.995 17.9977 20.995 17.9972 20.995 17.9968C20.995 17.996 20.995 17.9954 20.995 17.995C20.9951 17.9942 20.9951 17.9944 20.995 17.9954C20.995 17.9974 20.9949 18.0029 20.9946 18.0116C20.994 18.0292 20.9927 18.0595 20.9898 18.1007C20.9839 18.1835 20.9716 18.3084 20.9462 18.4608C20.8946 18.7704 20.7934 19.1679 20.601 19.5532C20.4105 19.9347 20.1405 20.2856 19.7544 20.5433C19.3747 20.7968 18.8235 21 18 21V23C19.174 23 20.121 22.7032 20.8648 22.2067C21.6023 21.7144 22.0814 21.0653 22.3903 20.4468C22.6972 19.8321 22.8457 19.2296 22.919 18.7892C22.9561 18.5666 22.975 18.379 22.9847 18.243C22.9896 18.1749 22.9921 18.1193 22.9935 18.0782C22.9942 18.0576 22.9946 18.0407 22.9948 18.0276C22.9949 18.021 22.9949 18.0154 22.995 18.0108C22.995 18.0085 22.995 18.0065 22.995 18.0047C22.995 18.0038 22.995 18.0029 22.995 18.0021C22.995 18.0018 22.995 18.0012 22.995 18.001C22.995 18.0005 22.995 18 21.995 18ZM6.68967 22.7241L17.1897 12.7241L15.8103 11.2759L5.31036 21.2759L6.68967 22.7241ZM22.995 18.0004L22.995 17.9954L20.995 17.9946L20.995 17.9996L22.995 18.0004ZM22.995 17.9954C22.996 15.6522 22.9972 12.6534 22.9982 10.2404C22.9987 9.03395 22.9992 7.97393 22.9995 7.21552C22.9997 6.83632 22.9998 6.53252 22.9999 6.32352C22.9999 6.21902 22.9999 6.13823 23 6.08355C23 6.05618 23 6.03544 23 6.02144C23 6.01441 23 6.00921 23 6.00564C23 6.00387 23 6.00256 23 6.00166C23 6.00138 23 6.00073 23 6.00066C23 6.00055 23 6.00047 23 6.00041C23 6.00036 23 6.00033 22 5.99992C21 5.9995 21 5.99953 21 5.99959C21 5.99964 21 5.99972 21 5.99984C21 6.00004 21 6.00041 21 6.00084C21 6.00158 21 6.00319 21 6.00482C21 6.00839 21 6.01358 21 6.02061C21 6.03454 21 6.05543 21 6.08272C20.9999 6.13739 20.9999 6.2182 20.9999 6.3227C20.9998 6.53169 20.9997 6.83549 20.9995 7.21469C20.9992 7.9731 20.9987 9.03313 20.9982 10.2396C20.9972 12.6526 20.996 15.6513 20.995 17.9946L22.995 17.9954ZM15.7628 12.6757L21.2579 18.6707L22.7322 17.3193L17.2372 11.3243L15.7628 12.6757ZM8.5 6.99982C9.32853 6.99982 10.0002 7.67147 10.0002 8.5H12.0002C12.0002 6.5669 10.4331 4.99982 8.5 4.99982V6.99982ZM10.0002 8.5C10.0002 9.32853 9.32853 10.0002 8.5 10.0002V12.0002C10.4331 12.0002 12.0002 10.4331 12.0002 8.5H10.0002ZM8.5 10.0002C7.67147 10.0002 6.99982 9.32853 6.99982 8.5H4.99982C4.99982 10.4331 6.5669 12.0002 8.5 12.0002V10.0002ZM6.99982 8.5C6.99982 7.67147 7.67147 6.99982 8.5 6.99982V4.99982C6.5669 4.99982 4.99982 6.5669 4.99982 8.5H6.99982Z" fill="#000"/>
</svg>
